<svg width="24" height="24" viewBox="0 0 24 24" fill="none" xmlns="http://www.w3.org/2000/svg">
<rect x="5" y="3" width="14" height="2" fill="#ADDDF8"/>
<rect x="5" y="19" width="14" height="2" fill="#ADDDF8"/>
<rect x="3" y="5" width="2" height="14" fill="#ADDDF8"/>
<rect x="19" y="5" width="2" height="14" fill="#ADDDF8"/>
<rect x="9" y="7" width="6" height="2" fill="#ADDDF8"/>
<rect x="9" y="15" width="6" height="2" fill="#ADDDF8"/>
<rect x="7" y="9" width="2" height="6" fill="#ADDDF8"/>
<rect x="15" y="9" width="2" height="6" fill="#ADDDF8"/>
<rect x="11" y="1" width="2" height="2" fill="#ADDDF8"/>
<rect x="11" y="21" width="2" height="2" fill="#ADDDF8"/>
<rect x="1" y="11" width="2" height="2" fill="#ADDDF8"/>
<rect x="21" y="11" width="2" height="2" fill="#ADDDF8"/>
<rect x="21" y="7" width="2" height="2" fill="#ADDDF8"/>
<rect x="21" y="15" width="2" height="2" fill="#ADDDF8"/>
<rect x="1" y="15" width="2" height="2" fill="#ADDDF8"/>
<rect x="1" y="7" width="2" height="2" fill="#ADDDF8"/>
<rect x="7" y="1" width="2" height="2" fill="#ADDDF8"/>
<rect x="15" y="1" width="2" height="2" fill="#ADDDF8"/>
<rect x="15" y="21" width="2" height="2" fill="#ADDDF8"/>
<rect x="7" y="21" width="2" height="2" fill="#ADDDF8"/>
</svg>
